<svg xmlns="http://www.w3.org/2000/svg" viewBox="0 0 164.89 20.6"><path d="M94.15 11.53a2.1 2.1 0 0 0-2.06-1.47 2 2 0 0 0-2 1.47Zm2.19.66c0 .78-.52 1-1.54 1h-4.75a2.07 2.07 0 0 0 2 1.6 2.27 2.27 0 0 0 1.95-.94l1.91.69a4.25 4.25 0 0 1-3.81 2.27 4.39 4.39 0 0 1 0-8.78 4.33 4.33 0 0 1 4.28 4.16ZM101.65 8a2.73 2.73 0 0 0-2.14 1v-.7h-2.37v8.26h2.34v-4c0-1.61.85-2.3 1.82-2.3.67 0 1.69.44 1.69 2.06v4.26h2.34v-4.46c0-2.78-1.87-4.12-3.68-4.12ZM86.08 6h-2.34v2.29h-1.56v2h1.56v6.31h2.34v-6.36h1.58v-2h-1.58V6Zm36 6.42a2.12 2.12 0 1 0-2.08 2.23 2.17 2.17 0 0 0 2.12-2.22Zm2.18 0A4.3 4.3 0 1 1 120 8a4.35 4.35 0 0 1 4.29 4.42Zm1.45 3.78-.18-.63h-.33v1h.23v-.73l.21.73h.16l.21-.73v.73h.23v-1h-.33l-.18.63Zm-13.16-3.78a2.15 2.15 0 0 0-2.13-2.24 2.24 2.24 0 0 0 0 4.48 2.15 2.15 0 0 0 2.16-2.24Zm0-7.5h2.35v11.63h-2.35v-.61a2.88 2.88 0 0 1-2.15.87 4.39 4.39 0 0 1 0-8.78 2.86 2.86 0 0 1 2.15.87Zm-68.86-.08c-.6 0-1.26.25-1.79 1.47-.36.85-2.82 6.57-2.82 6.57l-2.87-6.57c-.53-1.23-1.21-1.46-1.79-1.46-.81 0-1.57.55-1.57 1.87v9.83h2.52v-6.48h.05l2.33 5.45c.41.95.86 1.11 1.3 1.11s.9-.16 1.31-1.11l2.34-5.45v6.48h2.51V6.72c0-1.31-.69-1.88-1.57-1.88Zm80.8 11h.19v.76h.24v-.76h.19v-.22h-.62Zm-73.74-2.43-2-5.13h-2.57l3.49 8.1a1.68 1.68 0 0 1-1.83 1.49h-.34v2.06h.44c1.79 0 2.72-.33 3.28-1.72.13-.34 3.93-9.93 3.93-9.93h-2.64ZM21.3 5.67A10.35 10.35 0 0 0 12.05 0C7.41 0 2.62 3.17 2.62 8.46a6 6 0 0 0 3.24 5.3 1 1 0 0 0 1.34-.46L9 9.91l1.28 2.58a1 1 0 0 0 1.84 0l1.27-2.57 1.74 3.38a1 1 0 0 0 1.39.44 1.07 1.07 0 0 0 .43-1.43l-2.68-5.18a1 1 0 0 0-1.83 0l-1.26 2.55-1.26-2.54a1 1 0 0 0-1.83 0l-2.17 4.13a3.76 3.76 0 0 1-1.24-2.81c0-4 3.74-6.35 7.37-6.35a8.4 8.4 0 0 1 7.69 5.07 1 1 0 0 0 1 .6.63.63 0 0 1 .15 0H21a4.54 4.54 0 0 1 4.35 4.5 4.5 4.5 0 0 1-4.49 4.6 4.31 4.31 0 0 1-2.45-.8 1 1 0 0 0-1.27 0 11.23 11.23 0 0 1-6.93 2.4 11.32 11.32 0 0 1-8.36-3.77 1 1 0 0 0-1.45-.13 1.08 1.08 0 0 0-.13 1.49 13.37 13.37 0 0 0 9.94 4.52 13.15 13.15 0 0 0 7.61-2.4A6.63 6.63 0 1 0 21.3 5.67Zm48.41 10.88h2.34V8.29h-2.34ZM78.08 8a2.73 2.73 0 0 0-2.14 1v-.7h-2.36v8.26h2.34v-4c0-1.61.85-2.3 1.81-2.3.67 0 1.69.44 1.69 2.06v4.26h2.34v-4.46c0-2.78-1.87-4.12-3.68-4.12Zm-7.2-3.6a1.41 1.41 0 1 0 1.37 1.41 1.39 1.39 0 0 0-1.37-1.41Zm-5.32 7.71-4.75-6.4a1.73 1.73 0 0 0-1.33-.86 1.25 1.25 0 0 0-1.37 1.34v10.36h2.51V9.36l4.75 6.4a1.75 1.75 0 0 0 1.33.87 1.26 1.26 0 0 0 1.37-1.35V4.93h-2.51v7.18ZM154.05 9v-.71h-2.34v8.26H154v-3.72c0-1.57.82-2.46 2.08-2.46h.08V8a2.52 2.52 0 0 0-2.11 1Zm-5.25 3.38a2.12 2.12 0 1 0-2.12 2.22 2.17 2.17 0 0 0 2.12-2.22Zm2.18 0a4.3 4.3 0 1 1-4.3-4.38 4.35 4.35 0 0 1 4.32 4.42ZM140.61 6h-2.33v2.29h-1.56v2h1.56v6.31h2.33v-6.36h1.59v-2h-1.59Zm22.09 5.52a2.09 2.09 0 0 0-2-1.47 2 2 0 0 0-2 1.47Zm.66 1.65h-4.76a2.12 2.12 0 0 0 2 1.6 2.27 2.27 0 0 0 1.92-.93l1.91.69a4.25 4.25 0 0 1-3.81 2.27 4.39 4.39 0 0 1 0-8.78 4.33 4.33 0 0 1 4.28 4.16c0 .78-.51 1-1.54 1Zm-26.83.09a3.77 3.77 0 0 1-3.88 3.62 5.36 5.36 0 0 1-4.12-2.16l2.15-1.53a3 3 0 0 0 2 1.06 1.13 1.13 0 0 0 1.22-1c0-.82-1.14-1.14-2.37-1.61-2.09-.81-2.73-2.06-2.73-3.53a3.69 3.69 0 0 1 3.82-3.55 4.81 4.81 0 0 1 3.63 2l-2 1.42a2.45 2.45 0 0 0-1.76-.8c-.85 0-1.2.53-1.2.95 0 .9 1.19 1.17 2.37 1.62 2.37.91 2.81 2.27 2.81 3.55Z" style="fill:#fefefe;fill-rule:evenodd"/></svg>